<mxfile host="app.diagrams.net" modified="2021-01-15T23:01:30.061Z" agent="5.0 (X11; CrOS x86_64 13505.100.0) AppleWebKit/537.36 (KHTML, like Gecko) Chrome/87.0.4280.142 Safari/537.36" etag="m4V3gR80YF2cQylm810_" version="14.2.4" type="github">
  <diagram id="zRnDG_uBswrq6gIvY59q" name="Page-1">
    <mxGraphModel dx="1696" dy="980" grid="1" gridSize="10" guides="1" tooltips="1" connect="1" arrows="1" fold="1" page="1" pageScale="1" pageWidth="850" pageHeight="1100" math="0" shadow="0">
      <root>
        <mxCell id="0" />
        <mxCell id="1" parent="0" />
      </root>
    </mxGraphModel>
  </diagram>
</mxfile>
